<svg width="18" height="13" viewBox="0 0 18 13" fill="none" xmlns="http://www.w3.org/2000/svg">
<rect width="18" height="13" rx="2" fill="white"/>
<mask id="mask0_999_2285" style="mask-type:luminance" maskUnits="userSpaceOnUse" x="0" y="0" width="18" height="13">
<rect width="18" height="13" rx="2" fill="white"/>
</mask>
<g mask="url(#mask0_999_2285)">
<rect x="8.57141" width="9.42857" height="13" fill="#1AB11F"/>
<path fill-rule="evenodd" clip-rule="evenodd" d="M0 13H6V0H0V13Z" fill="#262626"/>
<path fill-rule="evenodd" clip-rule="evenodd" d="M6 13H12V0H6V13Z" fill="#DC0D18"/>
<path opacity="0.75" d="M7.95243 6.06641C7.95243 5.69822 7.65396 5.39974 7.28577 5.39974C6.91758 5.39974 6.6191 5.69822 6.6191 6.06641H7.95243ZM7.80359 8.14171C8.12116 8.32803 8.52964 8.22162 8.71596 7.90405C8.90227 7.58648 8.79587 7.178 8.4783 6.99169L7.80359 8.14171ZM9.56044 6.96788C9.25126 7.16782 9.16271 7.58053 9.36264 7.88971C9.56258 8.19888 9.9753 8.28744 10.2845 8.0875L9.56044 6.96788ZM11.381 6.06641C11.381 5.69822 11.0825 5.39974 10.7143 5.39974C10.3461 5.39974 10.0477 5.69822 10.0477 6.06641H11.381ZM6.6191 6.06641C6.6191 6.95085 7.09454 7.72572 7.80359 8.14171L8.4783 6.99169C8.16472 6.80772 7.95243 6.46348 7.95243 6.06641H6.6191ZM10.2845 8.0875C10.9444 7.66072 11.381 6.91381 11.381 6.06641H10.0477C10.0477 6.44689 9.85286 6.77878 9.56044 6.96788L10.2845 8.0875Z" fill="white"/>
<path fill-rule="evenodd" clip-rule="evenodd" d="M8.99997 6.93301C9.47335 6.93301 9.85711 6.35098 9.85711 5.63301C9.85711 4.91504 9.47335 4.33301 8.99997 4.33301C8.52658 4.33301 8.14282 4.91504 8.14282 5.63301C8.14282 6.35098 8.52658 6.93301 8.99997 6.93301Z" fill="white" fill-opacity="0.5"/>
</g>
</svg>
