<svg width="27" height="12" viewBox="0 0 27 12" fill="none" xmlns="http://www.w3.org/2000/svg">
<path d="M0.98 11V0.92H4.907C5.509 0.92 6.02233 1.04367 6.447 1.291C6.87633 1.53833 7.203 1.865 7.427 2.271C7.65567 2.67233 7.77 3.10633 7.77 3.573C7.77 4.119 7.63 4.59733 7.35 5.008C7.07 5.41867 6.692 5.701 6.216 5.855L6.202 5.512C6.85067 5.68467 7.35467 6.002 7.714 6.464C8.07333 6.926 8.253 7.47667 8.253 8.116C8.253 8.704 8.13167 9.21267 7.889 9.642C7.651 10.0713 7.30567 10.405 6.853 10.643C6.405 10.881 5.873 11 5.257 11H0.98ZM2.24 9.81H5.019C5.39233 9.81 5.726 9.74233 6.02 9.607C6.314 9.467 6.545 9.271 6.713 9.019C6.88567 8.767 6.972 8.46367 6.972 8.109C6.972 7.76833 6.895 7.46267 6.741 7.192C6.59167 6.92133 6.37933 6.70667 6.104 6.548C5.83333 6.38467 5.51833 6.303 5.159 6.303H2.24V9.81ZM2.24 5.127H4.893C5.19167 5.127 5.46 5.064 5.698 4.938C5.94067 4.80733 6.132 4.62533 6.272 4.392C6.41667 4.15867 6.489 3.88567 6.489 3.573C6.489 3.139 6.342 2.78433 6.048 2.509C5.754 2.23367 5.369 2.096 4.893 2.096H2.24V5.127ZM12.924 11.21C12.364 11.21 11.8413 11.1283 11.356 10.965C10.8706 10.8017 10.4646 10.545 10.138 10.195C9.88597 9.915 9.69697 9.607 9.57097 9.271C9.44964 8.93033 9.38197 8.571 9.36797 8.193C9.36797 7.82433 9.42164 7.465 9.52897 7.115C9.6363 6.76033 9.80664 6.44533 10.04 6.17C10.1613 6.02067 10.2966 5.89467 10.446 5.792C10.6 5.68467 10.754 5.59367 10.908 5.519C10.586 5.17367 10.3386 4.84933 10.166 4.546C9.99797 4.24267 9.91397 3.87633 9.91397 3.447C9.91397 2.901 10.054 2.40867 10.334 1.97C10.6186 1.52667 11.006 1.20233 11.496 0.997C11.734 0.894333 11.9766 0.824333 12.224 0.786999C12.476 0.744999 12.721 0.724 12.959 0.724C13.3603 0.724 13.75 0.779999 14.128 0.891999C14.506 1.004 14.828 1.186 15.094 1.438C15.2713 1.58733 15.423 1.76 15.549 1.956C15.675 2.14733 15.773 2.348 15.843 2.558L14.625 2.873C14.5363 2.635 14.3893 2.43433 14.184 2.271C14.0206 2.131 13.8293 2.03533 13.61 1.984C13.3953 1.93267 13.1783 1.907 12.959 1.907C12.595 1.907 12.266 1.977 11.972 2.117C11.7106 2.243 11.5146 2.42033 11.384 2.649C11.2533 2.873 11.188 3.139 11.188 3.447C11.188 3.713 11.2323 3.93233 11.321 4.105C11.4143 4.273 11.5426 4.45267 11.706 4.644C11.804 4.74667 11.9136 4.85633 12.035 4.973C12.161 5.085 12.2893 5.20167 12.42 5.323L15.388 8.081C15.402 7.96433 15.4113 7.84533 15.416 7.724C15.4206 7.60267 15.423 7.486 15.423 7.374L15.416 5.981H16.557V7.619C16.557 7.95033 16.5453 8.23267 16.522 8.466C16.5033 8.69933 16.4706 8.893 16.424 9.047L17.705 10.23L16.893 11.098L15.829 10.09C15.647 10.2953 15.43 10.475 15.178 10.629C14.926 10.783 14.674 10.8997 14.422 10.979C14.184 11.0677 13.939 11.1283 13.687 11.161C13.435 11.1937 13.1806 11.21 12.924 11.21ZM12.952 10.013C13.1806 10.013 13.3883 9.999 13.575 9.971C13.7616 9.943 13.939 9.88933 14.107 9.81C14.331 9.70267 14.5036 9.6 14.625 9.502C14.7463 9.404 14.8466 9.313 14.926 9.229L11.853 6.415C11.685 6.471 11.5263 6.54567 11.377 6.639C11.2323 6.73233 11.1063 6.842 10.999 6.968C10.8776 7.11733 10.7866 7.29233 10.726 7.493C10.67 7.69367 10.642 7.906 10.642 8.13C10.6466 8.368 10.6863 8.58733 10.761 8.788C10.8356 8.98867 10.9406 9.16833 11.076 9.327C11.2813 9.565 11.559 9.74 11.909 9.852C12.259 9.95933 12.6066 10.013 12.952 10.013ZM22.4261 11.21C21.7121 11.21 21.0681 11.0887 20.4941 10.846C19.9248 10.6033 19.4535 10.258 19.0801 9.81C18.7115 9.35733 18.4711 8.823 18.3591 8.207L19.6471 8.004C19.8105 8.63867 20.1488 9.13567 20.6621 9.495C21.1801 9.84967 21.7891 10.027 22.4891 10.027C22.9418 10.027 23.3501 9.957 23.7141 9.817C24.0828 9.67233 24.3745 9.467 24.5891 9.201C24.8038 8.935 24.9111 8.62 24.9111 8.256C24.9111 8.032 24.8715 7.84067 24.7921 7.682C24.7175 7.51867 24.6125 7.381 24.4771 7.269C24.3465 7.15233 24.1971 7.05433 24.0291 6.975C23.8611 6.89567 23.6861 6.83033 23.5041 6.779L20.9351 6.016C20.6551 5.932 20.3845 5.827 20.1231 5.701C19.8618 5.57033 19.6285 5.40933 19.4231 5.218C19.2178 5.022 19.0545 4.78867 18.9331 4.518C18.8118 4.24267 18.7511 3.91833 18.7511 3.545C18.7511 2.94767 18.9051 2.439 19.2131 2.019C19.5258 1.59433 19.9481 1.27 20.4801 1.046C21.0121 0.822 21.6118 0.712333 22.2791 0.716999C22.9558 0.721666 23.5601 0.843 24.0921 1.081C24.6288 1.31433 25.0721 1.65033 25.4221 2.089C25.7768 2.52767 26.0148 3.05267 26.1361 3.664L24.8131 3.895C24.7431 3.48433 24.5868 3.132 24.3441 2.838C24.1061 2.53933 23.8075 2.31067 23.4481 2.152C23.0888 1.98867 22.6945 1.90467 22.2651 1.9C21.8545 1.89533 21.4835 1.96067 21.1521 2.096C20.8208 2.23133 20.5571 2.42033 20.3611 2.663C20.1651 2.901 20.0671 3.17633 20.0671 3.489C20.0671 3.797 20.1558 4.04667 20.3331 4.238C20.5105 4.42467 20.7275 4.574 20.9841 4.686C21.2455 4.79333 21.4998 4.882 21.7471 4.952L23.6651 5.505C23.8845 5.56567 24.1365 5.64967 24.4211 5.757C24.7105 5.86433 24.9905 6.016 25.2611 6.212C25.5318 6.40333 25.7558 6.66 25.9331 6.982C26.1105 7.29933 26.1991 7.70067 26.1991 8.186C26.1991 8.67133 26.1011 9.103 25.9051 9.481C25.7138 9.859 25.4455 10.1763 25.1001 10.433C24.7548 10.685 24.3535 10.8763 23.8961 11.007C23.4388 11.1423 22.9488 11.21 22.4261 11.21Z" fill="black"/>
</svg>
