<svg width="32" height="32" viewBox="0 0 32 32" fill="none" xmlns="http://www.w3.org/2000/svg">
<g clip-path="url(#clip0_999_1829)">
<path d="M26.6667 6.66667H22.4401L20.0001 4H12.0001L9.56008 6.66667H5.33341C3.86675 6.66667 2.66675 7.86667 2.66675 9.33333V25.3333C2.66675 26.8 3.86675 28 5.33341 28H26.6667C28.1334 28 29.3334 26.8 29.3334 25.3333V9.33333C29.3334 7.86667 28.1334 6.66667 26.6667 6.66667ZM16.0001 24C12.3201 24 9.33341 21.0133 9.33341 17.3333H6.66675L10.0001 14L13.3334 17.3333H10.6667C10.6667 20.28 13.0534 22.6667 16.0001 22.6667C16.7734 22.6667 17.5067 22.4933 18.1601 22.2L19.1467 23.1867C18.2001 23.68 17.1467 24 16.0001 24ZM22.0001 20.6667L18.6667 17.3333H21.3334C21.3334 14.3867 18.9467 12 16.0001 12C15.2267 12 14.4934 12.1733 13.8401 12.4667L12.8534 11.4933C13.8001 10.9867 14.8534 10.6667 16.0001 10.6667C19.6801 10.6667 22.6667 13.6533 22.6667 17.3333H25.3334L22.0001 20.6667Z" fill="white"/>
</g>
<defs>
<clipPath id="clip0_999_1829">
<rect width="32" height="32" fill="white"/>
</clipPath>
</defs>
</svg>
