<svg width="24" height="24" viewBox="0 0 24 24" fill="none" xmlns="http://www.w3.org/2000/svg">
<g clip-path="url(#clip0_222_2209)">
<path d="M6.4756 3.19789C8.09591 2.22735 9.94913 1.71445 11.8379 1.71387C13.4093 1.71294 14.9607 2.06672 16.3764 2.74883C17.7921 3.43095 19.0356 4.42379 20.0141 5.65338C20.9927 6.88295 21.6811 8.31756 22.0281 9.85023C22.375 11.3829 22.3716 12.9741 22.018 14.5053C21.6643 16.0364 20.9697 17.468 19.9857 18.6934C19.0019 19.9186 17.754 20.906 16.3353 21.5819C14.9167 22.2579 13.3638 22.6048 11.7924 22.5971C10.4808 22.5906 9.18456 22.3371 7.97083 21.8523L2.26367 22.8027C1.626 22.9088 1.10477 22.2978 1.31014 21.6848L2.77013 17.3272C1.95688 15.9007 1.48976 14.2994 1.41129 12.6525C1.3214 10.7659 1.74492 8.89021 2.63675 7.22526C3.52855 5.56032 4.85527 4.16845 6.4756 3.19789Z" fill="white" stroke="white" stroke-width="1.5" stroke-linecap="round" stroke-linejoin="round"/>
</g>
<defs>
<clipPath id="clip0_222_2209">
<rect width="24" height="24" fill="white"/>
</clipPath>
</defs>
</svg>
