<svg width="24" height="24" viewBox="0 0 24 24" fill="none" xmlns="http://www.w3.org/2000/svg">
<g clip-path="url(#clip0_222_1922)">
<path d="M6.47557 3.19789C8.09588 2.22735 9.9491 1.71445 11.8379 1.71387C13.4093 1.71294 14.9607 2.06672 16.3764 2.74883C17.792 3.43095 19.0356 4.42379 20.0141 5.65338C20.9926 6.88295 21.6811 8.31756 22.028 9.85023C22.375 11.3829 22.3716 12.9741 22.0179 14.5053C21.6643 16.0364 20.9696 17.468 19.9856 18.6934C19.0018 19.9186 17.754 20.906 16.3353 21.5819C14.9167 22.2579 13.3638 22.6048 11.7923 22.5971C10.4808 22.5906 9.18453 22.3371 7.9708 21.8523L2.26364 22.8027C1.62597 22.9088 1.10474 22.2978 1.31011 21.6848L2.7701 17.3272C1.95685 15.9007 1.48973 14.2994 1.41126 12.6525C1.32137 10.7659 1.74489 8.89021 2.63672 7.22526C3.52852 5.56032 4.85524 4.16845 6.47557 3.19789Z" stroke="white" stroke-width="1.5" stroke-linecap="round" stroke-linejoin="round"/>
</g>
<defs>
<clipPath id="clip0_222_1922">
<rect width="24" height="24" fill="white"/>
</clipPath>
</defs>
</svg>
