<svg width="24" height="24" viewBox="0 0 24 24" fill="none" xmlns="http://www.w3.org/2000/svg">
<path fill-rule="evenodd" clip-rule="evenodd" d="M11 3.75C6.99594 3.75 3.75 6.99594 3.75 11C3.75 12.7632 4.37849 14.3777 5.42447 15.6345C5.58798 15.831 5.64017 16.0972 5.56294 16.3409L4.8245 18.6707L7.82803 17.7245C7.99239 17.6727 8.16957 17.6791 8.32976 17.7426C9.15514 18.0698 10.0556 18.25 11 18.25H13C17.0041 18.25 20.25 15.0041 20.25 11C20.25 6.99594 17.0041 3.75 13 3.75H11ZM2.25 11C2.25 6.16751 6.16751 2.25 11 2.25H13C17.8325 2.25 21.75 6.16751 21.75 11C21.75 15.8325 17.8325 19.75 13 19.75H11C9.95897 19.75 8.95896 19.5679 8.03108 19.2332L4.81646 20.2459C3.85115 20.55 2.9435 19.6408 3.24928 18.676L3.7381 18.831L3.24928 18.676L4.01265 16.2676C2.90646 14.8023 2.25 12.977 2.25 11Z" fill="black"/>
</svg>
