<svg width="32" height="32" viewBox="0 0 32 32" fill="none" xmlns="http://www.w3.org/2000/svg">
<circle cx="16" cy="16" r="16" fill="#D9D9D9"/>
<g clip-path="url(#clip0_222_2673)">
<path d="M19.5 15C20.3284 15 21 14.3284 21 13.5C21 12.6716 20.3284 12 19.5 12C18.6716 12 18 12.6716 18 13.5C18 14.3284 18.6716 15 19.5 15Z" fill="black"/>
<path d="M12.5 15C13.3284 15 14 14.3284 14 13.5C14 12.6716 13.3284 12 12.5 12C11.6716 12 11 12.6716 11 13.5C11 14.3284 11.6716 15 12.5 15Z" fill="black"/>
<path d="M16 22C18.28 22 20.22 20.34 21 18H11C11.78 20.34 13.72 22 16 22Z" fill="black"/>
<path d="M15.99 6C10.47 6 6 10.48 6 16C6 21.52 10.47 26 15.99 26C21.52 26 26 21.52 26 16C26 10.48 21.52 6 15.99 6ZM16 24C11.58 24 8 20.42 8 16C8 11.58 11.58 8 16 8C20.42 8 24 11.58 24 16C24 20.42 20.42 24 16 24Z" fill="black"/>
</g>
<defs>
<clipPath id="clip0_222_2673">
<rect width="24" height="24" fill="white" transform="translate(4 4)"/>
</clipPath>
</defs>
</svg>
