<svg width="24" height="24" viewBox="0 0 24 24" fill="none" xmlns="http://www.w3.org/2000/svg">
<path fill-rule="evenodd" clip-rule="evenodd" d="M11.7024 1.09976C11.3568 1.12908 11.1401 1.16407 10.8675 1.23453C10.4118 1.35232 9.96602 1.54827 9.57674 1.80189C9.40458 1.91405 9.31542 1.98136 8.95199 2.27353C5.96607 4.67393 4.67432 5.96568 2.27392 8.9516C1.98175 9.31503 1.91444 9.40419 1.80228 9.57635C1.18979 10.5165 0.96053 11.6812 1.16753 12.8011C1.28229 13.422 1.54097 14.0359 1.90268 14.5459C2.05563 14.7615 2.74197 15.617 3.32569 16.3196C4.35951 17.5639 5.28335 18.5425 6.31713 19.4881C7.04852 20.1571 8.02601 20.9779 9.13919 21.8578C9.49535 22.1393 9.72825 22.2914 10.0368 22.4438C10.5154 22.6803 10.9801 22.816 11.5404 22.8829C11.7157 22.9039 12.2842 22.9069 12.4464 22.8878C13.0445 22.8171 13.5142 22.6816 13.9973 22.4402C14.3735 22.2522 14.5444 22.1334 15.1968 21.6057C17.9188 19.4044 19.1858 18.1565 21.212 15.6812C21.9585 14.7692 22.1162 14.5636 22.2854 14.282C23.0987 12.928 23.1121 11.1761 22.3197 9.8012C22.177 9.55356 22.0801 9.41827 21.7387 8.99C19.6991 6.43173 18.5035 5.16899 16.5888 3.55098C16.0341 3.08227 14.9145 2.17474 14.6268 1.96058C14.0041 1.49714 13.276 1.21284 12.4664 1.11698C12.3477 1.10293 11.8083 1.09078 11.7024 1.09976ZM11.664 2.82775C11.2363 2.87924 10.8279 3.02994 10.4736 3.26695C10.4182 3.30404 10.2302 3.44885 10.056 3.58876C7.15418 5.9188 5.91445 7.15875 3.58485 10.061C3.44262 10.2382 3.29786 10.4261 3.26318 10.4786C3.01694 10.8511 2.8739 11.2499 2.82264 11.7068C2.81014 11.8182 2.81014 12.1522 2.82264 12.2636C2.87693 12.7476 3.04003 13.1829 3.30915 13.5621C3.41109 13.7057 4.15018 14.6248 4.59249 15.158C5.95349 16.7986 7.06926 17.9222 8.66879 19.2631C9.29321 19.7866 10.314 20.6069 10.488 20.7251C10.8585 20.9768 11.2887 21.1303 11.7582 21.1782C11.8967 21.1923 12.268 21.184 12.4013 21.1637C12.8138 21.1012 13.204 20.9504 13.536 20.7253C13.6756 20.6307 14.3667 20.0745 15.0432 19.5123C16.8238 18.0326 18.0366 16.8198 19.5126 15.0428C20.0852 14.3534 20.6309 13.6754 20.7257 13.5356C20.9525 13.2011 21.1015 12.8133 21.1658 12.3908C21.1891 12.2377 21.1891 11.7903 21.1658 11.6372C21.0983 11.1938 20.9344 10.7785 20.6928 10.439C20.6359 10.3589 20.0102 9.57624 19.7043 9.20227C18.1646 7.32015 17.0869 6.21675 15.3936 4.78897C14.822 4.30701 13.6608 3.3732 13.5024 3.26815C13.1311 3.02189 12.7392 2.87897 12.2928 2.82694C12.1385 2.80895 11.8167 2.80936 11.664 2.82775ZM11.8464 6.40395C11.5789 6.42535 11.3163 6.51638 11.0849 6.66786C10.914 6.77972 10.4363 7.14949 10.1136 7.4197C9.92345 7.57891 9.68956 7.78601 9.49439 7.96797C9.14639 8.29242 8.422 9.03443 8.33729 9.1532C8.23931 9.2906 8.19117 9.43075 8.18233 9.6044C8.16415 9.96149 8.35427 10.2762 8.68136 10.4304C8.76887 10.4717 8.84204 10.4907 8.9558 10.5017C9.16137 10.5216 9.36719 10.4683 9.52783 10.3537C9.56213 10.3292 9.73885 10.1546 9.93599 9.9504C10.6551 9.2056 11.1433 8.76723 11.8492 8.23251L12.0001 8.11822L12.156 8.23672C12.8648 8.77526 13.351 9.21187 14.0628 9.94913C14.2607 10.1542 14.4378 10.3292 14.4722 10.3537C14.7109 10.524 15.0544 10.5551 15.3191 10.4302C15.5021 10.3439 15.6604 10.1884 15.7402 10.0166C15.7968 9.89472 15.8151 9.8049 15.8154 9.6476C15.8157 9.48728 15.7964 9.39553 15.7377 9.27852C15.6837 9.17071 15.6341 9.10879 15.4261 8.8892C15.0111 8.45104 14.545 7.9955 14.1946 7.6855C13.8011 7.33742 13.1649 6.8314 12.9151 6.66787C12.6768 6.51186 12.4245 6.42635 12.1349 6.40343C11.9937 6.39224 11.9925 6.39225 11.8464 6.40395ZM8.94719 13.4971C8.5973 13.5319 8.29885 13.7864 8.20615 14.1289C8.1759 14.2407 8.17595 14.4606 8.20624 14.5719C8.23174 14.6656 8.27873 14.7639 8.33729 14.846C8.42193 14.9647 9.147 15.7074 9.49338 16.0303C9.90058 16.4098 10.3122 16.7544 10.8096 17.1324C11.0331 17.3022 11.1418 17.3736 11.2752 17.4384C11.5387 17.5662 11.8301 17.6198 12.132 17.596C12.3558 17.5783 12.5338 17.531 12.7248 17.4384C12.8582 17.3736 12.9669 17.3022 13.1904 17.1324C13.6876 16.7546 14.0988 16.4103 14.5066 16.0303C14.85 15.7103 15.5785 14.964 15.6627 14.846C15.7213 14.7638 15.7683 14.6655 15.7937 14.5719C15.825 14.4564 15.8249 14.2487 15.7935 14.1314C15.7267 13.8826 15.5568 13.6811 15.3191 13.569C15.2311 13.5275 15.1581 13.5085 15.0442 13.4975C14.8389 13.4777 14.6328 13.5309 14.4726 13.6452C14.4389 13.6693 14.253 13.853 14.0477 14.0654C13.3456 14.7914 12.8545 15.232 12.156 15.7625L12.0001 15.881L11.8684 15.7811C11.1379 15.2273 10.6645 14.8029 9.93497 14.0478C9.55727 13.6568 9.50988 13.6157 9.36861 13.5571C9.2461 13.5062 9.08537 13.4834 8.94719 13.4971Z" fill="#3A3939"/>
</svg>
