<svg width="18" height="13" viewBox="0 0 18 13" fill="none" xmlns="http://www.w3.org/2000/svg">
<rect x="0.25" y="0.25" width="17.5" height="12.5" rx="1.75" fill="white" stroke="#F5F5F5" stroke-width="0.5"/>
<mask id="mask0_999_2287" style="mask-type:luminance" maskUnits="userSpaceOnUse" x="0" y="0" width="18" height="13">
<rect x="0.25" y="0.25" width="17.5" height="12.5" rx="1.75" fill="white" stroke="white" stroke-width="0.5"/>
</mask>
<g mask="url(#mask0_999_2287)">
<path fill-rule="evenodd" clip-rule="evenodd" d="M0 4.33333H18V0H0V4.33333Z" fill="#FFA44A"/>
<path fill-rule="evenodd" clip-rule="evenodd" d="M0 13.0003H18V8.66699H0V13.0003Z" fill="#1A9F0B"/>
<path d="M8.99995 8.13353C9.89759 8.13353 10.619 7.39878 10.619 6.5002C10.619 5.60161 9.89759 4.86686 8.99995 4.86686C8.10231 4.86686 7.3809 5.60161 7.3809 6.5002C7.3809 7.39878 8.10231 8.13353 8.99995 8.13353Z" fill="#181A93" fill-opacity="0.15" stroke="#181A93" stroke-width="0.666667"/>
<path fill-rule="evenodd" clip-rule="evenodd" d="M8.99998 6.93307C9.23668 6.93307 9.42855 6.73906 9.42855 6.49974C9.42855 6.26042 9.23668 6.06641 8.99998 6.06641C8.76329 6.06641 8.57141 6.26042 8.57141 6.49974C8.57141 6.73906 8.76329 6.93307 8.99998 6.93307Z" fill="#181A93"/>
</g>
</svg>
