<svg width="24" height="24" viewBox="0 0 24 24" fill="none" xmlns="http://www.w3.org/2000/svg">
<g clip-path="url(#clip0_0_6754)">
<path fill-rule="evenodd" clip-rule="evenodd" d="M11.6592 0.860274C11.1416 0.882422 10.819 0.910598 10.3968 0.970511C8.77329 1.20095 7.19159 1.80843 5.81282 2.73108C5.17212 3.15984 4.68274 3.56284 4.12269 4.12289C3.56264 4.68294 3.15964 5.17233 2.73088 5.81302C1.68923 7.3696 1.05818 9.16316 0.898473 11.021C0.867282 11.3839 0.860111 11.5673 0.860169 12.0002C0.860236 12.4309 0.866783 12.5984 0.89829 12.9746C1.05298 14.822 1.68852 16.6298 2.73088 18.1874C4.22779 20.4243 6.46475 22.0384 9.05762 22.7525C9.79614 22.9559 10.5189 23.0728 11.3808 23.1283C11.6162 23.1434 12.3838 23.1434 12.6192 23.1283C13.6942 23.0591 14.5356 22.8996 15.4992 22.5825C16.9282 22.1122 18.2289 21.3629 19.392 20.3399C19.6325 20.1283 20.1281 19.6327 20.3397 19.3922C21.3627 18.2291 22.112 16.9284 22.5823 15.4994C22.8993 14.536 23.0594 13.6913 23.128 12.6194C23.1431 12.3829 23.1432 11.6153 23.1281 11.381C23.0725 10.5188 22.9556 9.79594 22.7523 9.05782C22.4332 7.89923 21.9328 6.80486 21.2671 5.80977C19.8819 3.73917 17.8362 2.18363 15.4848 1.41299C14.533 1.10103 13.6722 0.938188 12.6336 0.87358C12.472 0.863529 11.7982 0.854332 11.6592 0.860274ZM11.64 2.57876C11.0247 2.60973 10.5746 2.66506 10.0558 2.77345C8.68647 3.05958 7.36231 3.66963 6.25442 4.52479C5.92273 4.78081 5.66617 5.00799 5.33699 5.33719C5.07483 5.59933 4.93801 5.74824 4.73659 5.99062C3.54739 7.42164 2.80464 9.19497 2.62158 11.0402C2.58501 11.4088 2.5783 11.5577 2.5783 12.0002C2.5783 12.4428 2.58501 12.5916 2.62158 12.9602C2.79303 14.6885 3.4607 16.3675 4.52458 17.7458C4.78061 18.0775 5.00779 18.3341 5.33699 18.6633C5.59913 18.9254 5.74804 19.0622 5.99042 19.2636C7.42095 20.4524 9.1954 21.1957 11.04 21.3787C11.4086 21.4152 11.5575 21.4219 12 21.4219C12.4426 21.4219 12.5914 21.4152 12.96 21.3787C14.4234 21.2335 15.8596 20.7306 17.1072 19.9267C17.6717 19.5629 18.1583 19.1676 18.6629 18.6631C18.928 18.3979 19.1039 18.205 19.3108 17.9522C20.47 16.5363 21.1981 14.7785 21.3785 12.9602C21.415 12.5916 21.4217 12.4428 21.4217 12.0002C21.4217 11.5765 21.4157 11.4326 21.3835 11.0882C21.2121 9.25659 20.4756 7.46663 19.3084 6.04502C19.0996 5.79072 18.9367 5.61187 18.6721 5.34666C18.2599 4.93345 17.9225 4.64509 17.4768 4.32506C16.4435 3.5831 15.1942 3.03365 13.9536 2.77543C13.5071 2.6825 13.0987 2.62637 12.6192 2.59204C12.4766 2.58183 11.7695 2.57224 11.64 2.57876ZM13.3758 5.73085C13.0961 5.77537 12.8399 5.97428 12.7236 6.2372C12.6362 6.43494 12.635 6.70594 12.7206 6.91356C12.7809 7.05985 12.7943 7.07447 13.6644 7.94653L14.4906 8.77445L10.8861 8.77693L7.28162 8.77942L7.19522 8.80639C6.90293 8.89761 6.68258 9.1235 6.60347 9.41302C6.57348 9.52278 6.57331 9.74364 6.60312 9.85462C6.6727 10.1136 6.89304 10.354 7.13948 10.4398C7.28778 10.4914 6.97352 10.4882 12.0048 10.4882C16.5031 10.4882 16.6829 10.4876 16.755 10.4706C16.8419 10.4503 16.941 10.4111 17.0021 10.3731C17.1931 10.2541 17.3424 10.0579 17.3968 9.85462C17.4131 9.79384 17.4175 9.74879 17.4181 9.63862C17.4189 9.48868 17.4059 9.42102 17.3508 9.28999C17.2895 9.14435 17.3193 9.17567 15.664 7.51869C14.7972 6.65104 14.0635 5.92204 14.0335 5.89867C13.8905 5.78715 13.7336 5.73173 13.5456 5.72636C13.4796 5.72447 13.4032 5.7265 13.3758 5.73085ZM7.34882 13.5137C7.27763 13.5222 7.19972 13.5397 7.13948 13.5607C6.893 13.6465 6.67242 13.8871 6.60321 14.1458C6.58694 14.2066 6.5825 14.2517 6.5819 14.3618C6.5811 14.5118 6.59417 14.5794 6.64928 14.7105C6.71052 14.8561 6.68069 14.8248 8.33604 16.4818C9.20283 17.3494 9.93654 18.0784 9.96651 18.1018C10.0446 18.1626 10.1484 18.2159 10.248 18.2461C10.3263 18.2699 10.3484 18.2724 10.4832 18.2723C10.6063 18.2722 10.6453 18.2686 10.7088 18.2512C10.9492 18.1854 11.1564 18.012 11.2654 17.7852C11.3636 17.5812 11.3691 17.3043 11.2795 17.0869C11.2191 16.9406 11.2058 16.926 10.3356 16.0539L9.50946 15.226L13.1139 15.2235L16.7184 15.221L16.8048 15.1941C17.0971 15.1028 17.3175 14.8769 17.3966 14.5874C17.4266 14.4777 17.4267 14.2568 17.3969 14.1458C17.353 13.9825 17.2376 13.8075 17.1035 13.7009C16.9889 13.6098 16.9082 13.5694 16.7616 13.5295C16.7024 13.5134 16.4625 13.5125 12.0384 13.5114C9.47498 13.5107 7.36466 13.5118 7.34882 13.5137Z" fill="#3A3939"/>
</g>
<defs>
<clipPath id="clip0_0_6754">
<rect width="24" height="24" fill="white"/>
</clipPath>
</defs>
</svg>
