<svg width="23" height="23" viewBox="0 0 23 23" fill="none" xmlns="http://www.w3.org/2000/svg">
<path fill-rule="evenodd" clip-rule="evenodd" d="M2.46083 0.100647C1.83883 0.152496 1.29643 0.400493 0.867469 0.829152C0.364496 1.33178 0.0951871 2.03737 0.141862 2.73028C0.178035 3.2674 0.370726 4.65189 0.531277 5.52819C1.06862 8.4611 1.9226 10.374 3.2412 11.5983C3.93146 12.2392 4.83213 12.9175 6.20003 13.8268C6.88919 14.2849 7.46848 14.6558 8.92163 15.5695C9.38627 15.8616 9.76972 16.1035 9.77374 16.107C9.77777 16.1105 9.72234 16.1779 9.65056 16.2568C9.38353 16.5502 9.25006 16.7307 9.12917 16.9618C8.8046 17.5823 8.73714 18.3295 8.9451 19.0007C9.03128 19.2788 9.14412 19.4952 9.4224 19.9158C9.82443 20.5236 10.1803 20.9087 10.6976 21.296C11.0064 21.5272 11.3998 21.7772 11.6296 21.8882C12.4493 22.2843 13.463 22.2099 14.2408 21.6964C14.4147 21.5816 14.5582 21.4567 15.3377 20.7415L15.5041 20.5888L15.5249 20.6073C15.5363 20.6175 15.7271 20.7939 15.9489 20.9994C16.1707 21.2049 16.3824 21.3992 16.4193 21.4313C17.1468 22.0629 18.1874 22.255 19.0941 21.9251C19.4347 21.8011 20.0177 21.474 20.3744 21.2065C20.9287 20.7909 21.304 20.3268 21.7183 19.5443C21.9246 19.1548 22.0174 18.879 22.0656 18.5122C22.0841 18.3713 22.0865 18.0251 22.0699 17.8882C22.0018 17.3285 21.7873 16.8332 21.4358 16.4245C21.4065 16.3903 21.2143 16.1808 21.0089 15.9589C20.8035 15.737 20.6249 15.5439 20.612 15.5299L20.5885 15.5044L20.7413 15.3379C21.1917 14.847 21.5128 14.4898 21.5725 14.413C21.9061 13.9843 22.095 13.4856 22.1354 12.927C22.1461 12.778 22.1319 12.4859 22.1066 12.3349C22.0397 11.9359 21.9324 11.6654 21.6828 11.2664C21.1449 10.4065 20.7004 9.94283 19.915 9.42245C19.5165 9.15845 19.3073 9.04766 19.0428 8.96048C18.5106 8.7851 17.9565 8.77905 17.4224 8.94281C17.1677 9.02093 16.9461 9.12471 16.7312 9.26655C16.5801 9.36634 16.5063 9.42527 16.3106 9.60262C16.2245 9.68068 16.1527 9.74302 16.151 9.74117C16.1478 9.73747 15.8344 9.24034 15.289 8.37387C14.0765 6.44775 13.3895 5.41787 12.7087 4.50579C11.9488 3.48781 11.4289 2.92541 10.832 2.47552C10.2697 2.05171 9.57126 1.67122 8.79203 1.36421C7.38418 0.809549 5.52307 0.40728 3.09443 0.132701C2.84957 0.105024 2.57498 0.0911234 2.46083 0.100647ZM2.48963 1.82717C2.19627 1.88152 1.95752 2.1032 1.87876 2.39435C1.84016 2.53707 1.84879 2.66391 1.95286 3.48339C2.16373 5.14358 2.45001 6.51626 2.81179 7.60179C3.09368 8.44755 3.45864 9.18792 3.85689 9.72188C4.21201 10.198 4.67301 10.6209 5.57123 11.2946C6.45161 11.9549 7.41682 12.5941 9.79043 14.0887C11.6175 15.2391 12.4255 15.751 12.4238 15.7568C12.4228 15.7601 12.0517 16.1697 11.5991 16.6671C11.1465 17.1645 10.7574 17.5951 10.7344 17.6242C10.6836 17.6883 10.6159 17.8179 10.5891 17.9026C10.5526 18.0176 10.5444 18.0771 10.5453 18.2194C10.547 18.4682 10.591 18.5747 10.8592 18.9778C11.0419 19.2524 11.1867 19.4347 11.3593 19.6073C11.5288 19.7768 11.712 19.9229 11.9762 20.0992C12.3615 20.3564 12.4748 20.4065 12.7088 20.4228C12.9193 20.4374 13.1664 20.3647 13.3306 20.2399C13.3837 20.1995 13.378 20.2047 14.5834 19.1047C15.2245 18.5197 15.5163 18.2594 15.525 18.2646C15.532 18.2688 15.9862 18.6891 16.5344 19.1986C17.0826 19.7081 17.5565 20.1454 17.5876 20.1704C17.667 20.2343 17.8212 20.3079 17.9357 20.3366C18.0562 20.3668 18.1995 20.3762 18.3063 20.3609C18.4588 20.339 18.5291 20.3124 18.7668 20.1869C19.4989 19.8002 19.796 19.5026 20.1898 18.7618C20.3236 18.51 20.3566 18.4133 20.3665 18.2434C20.3801 18.0109 20.3023 17.7521 20.1686 17.5856C20.1445 17.5556 19.7101 17.0847 19.2032 16.539C18.6963 15.9934 18.276 15.5392 18.2692 15.5298C18.2581 15.5143 18.3439 15.4171 19.1045 14.5836C20.2371 13.3425 20.2 13.3835 20.2451 13.3234C20.4405 13.0631 20.4802 12.6496 20.3371 12.3654C20.2704 12.2331 20.0856 11.9467 19.9393 11.749C19.661 11.373 19.413 11.1462 18.9392 10.8346C18.651 10.645 18.5345 10.5866 18.3872 10.5579C18.2997 10.5408 18.1076 10.5407 18.0224 10.5575C17.8881 10.5841 17.7405 10.6482 17.6384 10.7242C17.6067 10.7478 17.1792 11.1327 16.6883 11.5795C16.1974 12.0262 15.793 12.3886 15.7897 12.3848C15.7841 12.3784 14.606 10.5108 13.7838 9.20499C12.457 7.09761 11.6677 5.93417 10.9769 5.06739C10.2076 4.10225 9.7362 3.706 8.81704 3.25181C7.49886 2.60046 5.65674 2.15761 2.97347 1.84699C2.65793 1.81046 2.59394 1.80784 2.48963 1.82717Z" fill="#3A3939"/>
</svg>
