<svg width="16" height="20" viewBox="0 0 16 20" fill="none" xmlns="http://www.w3.org/2000/svg">
<path d="M6.80775 1.07626C6.72317 1.02635 6.62647 1 6.52795 1C6.42941 1 6.33273 1.02635 6.24814 1.07626C6.17836 1.13087 6.13129 1.20885 6.11582 1.29544C6.10036 1.38203 6.11756 1.47122 6.1642 1.54613C7.41139 3.67951 7.94574 6.37184 7.25056 8.53406C6.80062 9.93349 4.97505 10.014 4.21865 8.74999C4.06341 8.49057 3.92348 8.22165 3.79984 7.94448C2.93066 8.42132 2.21032 9.12424 1.71705 9.97693C1.22376 10.8296 0.97639 11.7995 1.00177 12.7812C1.14914 16.3761 3.49205 19 7.99693 19C12.5018 19 14.8382 16.2361 14.9921 12.7812C15.1739 8.63545 12.194 3.53611 6.80775 1.07626Z" fill="white" stroke="white" stroke-width="1.5" stroke-linecap="round" stroke-linejoin="round"/>
</svg>
