<svg width="16" height="16" viewBox="0 0 16 16" fill="none" xmlns="http://www.w3.org/2000/svg">
<g clip-path="url(#clip0_0_357)">
<path d="M4.70003 12.9404H4V6.40163L7.45035 1.49068C7.72926 1.0937 8.18402 0.857422 8.66919 0.857422C9.57393 0.857422 10.2698 1.65735 10.1444 2.55336L9.88438 4.41252H12.1592C13.1537 4.41252 15.1429 5.40707 15.1429 7.39618C15.1429 9.38528 13.1429 13.9349 11.0272 13.9349C8.24248 13.9349 5.86035 13.2719 4.70003 12.9404Z" stroke="#3A3939" stroke-width="1.5" stroke-linecap="round" stroke-linejoin="round"/>
<path d="M0.857178 6.14272C0.857178 5.27484 1.56073 4.57129 2.42861 4.57129C3.29648 4.57129 4.00003 5.27484 4.00003 6.14272V12.7141C4.00003 13.582 3.29648 14.2856 2.42861 14.2856C1.56073 14.2856 0.857178 13.582 0.857178 12.7141V6.14272Z" stroke="#3A3939" stroke-width="1.5" stroke-linejoin="round"/>
</g>
<defs>
<clipPath id="clip0_0_357">
<rect width="16" height="16" fill="white"/>
</clipPath>
</defs>
</svg>
