<svg width="24" height="24" viewBox="0 0 24 24" fill="none" xmlns="http://www.w3.org/2000/svg">
<path fill-rule="evenodd" clip-rule="evenodd" d="M11.3616 2.8382C9.64404 2.85362 8.08802 2.93553 6.81602 3.07749C6.07543 3.16015 5.47077 3.24792 4.53122 3.40916C4.31738 3.44586 3.97826 3.50397 3.77762 3.53829C3.57698 3.57262 3.37394 3.60961 3.32642 3.62051C2.207 3.8771 1.26 4.61944 0.778153 5.61804C0.599536 5.98823 0.495731 6.34251 0.449641 6.73926C0.430605 6.90314 0.430605 17.097 0.449641 17.2609C0.514432 17.8186 0.707142 18.3373 1.02744 18.8161C1.40205 19.376 1.94906 19.8377 2.57827 20.1252C2.81391 20.2328 3.0319 20.3077 3.29282 20.3707C3.47173 20.4139 5.10932 20.6927 5.63042 20.7687C7.56562 21.0508 9.35117 21.1607 12 21.1607C14.6489 21.1607 16.4344 21.0508 18.3696 20.7687C18.8907 20.6927 20.5283 20.4139 20.7072 20.3707C21.8266 20.1004 22.7466 19.3705 23.2271 18.3715C23.4008 18.0105 23.5049 17.6529 23.5504 17.2609C23.5694 17.0976 23.5694 6.49579 23.5505 6.34566C23.4752 5.74974 23.2825 5.24821 22.9461 4.77253C22.7946 4.55829 22.5384 4.28879 22.3389 4.13365C21.8841 3.78008 21.409 3.57293 20.8416 3.4809C19.6041 3.28016 17.8283 3.08709 16.2 2.97626C14.7216 2.87562 12.9201 2.82421 11.3616 2.8382ZM10.9392 4.55988C8.71554 4.59755 7.1104 4.7261 5.41442 5.00231C4.97797 5.0734 3.90106 5.25802 3.76007 5.28594C3.3779 5.36161 3.0175 5.5455 2.74814 5.80227C2.55054 5.99063 2.44285 6.13182 2.33732 6.34086C2.2472 6.51936 2.18879 6.70441 2.15851 6.90726C2.13933 7.0358 2.13933 16.9643 2.15851 17.0929C2.20914 17.432 2.34732 17.745 2.55942 18.0008C2.64579 18.105 2.83373 18.2833 2.92849 18.3509C3.17437 18.5265 3.45617 18.652 3.73442 18.71C3.79153 18.7219 4.86106 18.9061 5.23682 18.9688C7.30773 19.314 9.15158 19.4434 12 19.4434C14.5653 19.4434 16.358 19.334 18.1248 19.0697C18.5348 19.0084 19.835 18.7906 20.1888 18.724C20.6224 18.6424 20.9726 18.4667 21.2665 18.1833C21.4561 18.0005 21.5596 17.8637 21.6623 17.6602C21.7492 17.4879 21.7964 17.3438 21.837 17.1265C21.8532 17.0399 21.8543 16.7734 21.8571 11.9233C21.8592 8.3695 21.857 6.76297 21.8498 6.65286C21.8334 6.39854 21.7902 6.22194 21.6952 6.02045C21.4889 5.58301 21.1095 5.2833 20.6437 5.18987C20.4962 5.16028 19.8227 5.06418 19.2946 4.99738C17.4341 4.76201 15.551 4.62427 13.4451 4.56951C12.9314 4.55616 11.4869 4.55061 10.9392 4.55988ZM7.55362 8.15534C7.23328 8.21571 6.95917 8.47417 6.88174 8.78886C6.85191 8.91008 6.85191 9.09004 6.88174 9.21126C6.95311 9.50131 7.20059 9.75256 7.49282 9.83164C7.56166 9.85027 7.60442 9.85313 7.90562 9.85933C8.21095 9.86561 8.24818 9.86817 8.31362 9.88728C8.57753 9.9644 8.79981 10.1646 8.88644 10.4033C8.89905 10.438 9.22675 11.7358 9.61465 13.2873C10.0025 14.8388 10.3309 16.1374 10.3444 16.1732C10.3929 16.3021 10.5088 16.4562 10.6169 16.5356C10.7796 16.655 10.9501 16.7137 11.1342 16.7137C11.3843 16.7136 11.5938 16.6238 11.7655 16.443C11.8248 16.3806 12.1067 15.9343 14.0021 12.9018C15.195 10.9935 16.1872 9.39898 16.2072 9.35854C16.3162 9.13751 16.3118 8.84982 16.1958 8.61606C16.0905 8.4039 15.8828 8.23463 15.648 8.16974C15.3233 8.07999 14.9471 8.20875 14.7487 8.47755C14.7275 8.5062 13.9896 9.6831 13.1089 11.0929C12.2282 12.5026 11.5024 13.6617 11.496 13.6687C11.4868 13.6787 11.3883 13.2969 11.0224 11.8339C10.752 10.7525 10.544 9.93964 10.5208 9.87361C10.3316 9.33474 9.98208 8.88499 9.50801 8.57026C9.179 8.35184 8.81963 8.21808 8.40482 8.15965C8.36258 8.1537 8.17034 8.14718 7.97762 8.14516C7.70021 8.14224 7.61188 8.14436 7.55362 8.15534Z" fill="#3A3939"/>
</svg>
