<svg width="16" height="16" viewBox="0 0 16 16" fill="none" xmlns="http://www.w3.org/2000/svg">
<g clip-path="url(#clip0_0_365)">
<path d="M6.48828 14.2373C6.77724 14.776 7.34584 15.1426 8 15.1426C8.65417 15.1426 9.22275 14.776 9.51172 14.2373" stroke="black" stroke-width="1.5" stroke-linecap="round" stroke-linejoin="round"/>
<path d="M4.87133 2.15338C5.70112 1.32359 6.82654 0.857422 8.00004 0.857422C9.17353 0.857422 10.2989 1.32359 11.1287 2.15338C11.9585 2.98316 12.4247 4.10859 12.4247 5.28209C12.4247 5.97255 12.5386 6.62135 12.7101 7.28498C12.7581 7.43521 12.811 7.57697 12.8679 7.7107C13.133 8.33444 13.8631 8.54727 14.4079 8.95055C15.221 9.55252 15.0638 10.8405 14.3874 11.3406C14.3874 11.3406 13.2954 12.286 8.00004 12.286C2.70457 12.286 1.61259 11.3406 1.61259 11.3406C0.936266 10.8405 0.779062 9.55252 1.59218 8.95055C2.13692 8.54727 2.86698 8.33448 3.1322 7.71076C3.39657 7.08904 3.57538 6.29373 3.57538 5.28209C3.57538 4.10859 4.04155 2.98316 4.87133 2.15338Z" stroke="black" stroke-width="1.5" stroke-linecap="round" stroke-linejoin="round"/>
</g>
<defs>
<clipPath id="clip0_0_365">
<rect width="16" height="16" fill="white"/>
</clipPath>
</defs>
</svg>
