<svg width="22" height="18" viewBox="0 0 22 18" fill="none" xmlns="http://www.w3.org/2000/svg">
<path fill-rule="evenodd" clip-rule="evenodd" d="M0 1.59788C0 0.715381 0.631069 0 1.40952 0H20.5905C21.3691 0 22 0.715381 22 1.59788C22 2.48036 21.3691 3.19576 20.5905 3.19576H1.40952C0.631069 3.19576 0 2.48036 0 1.59788ZM3.82524 7.40265C3.0468 7.40265 2.41573 8.11806 2.41573 9.00053C2.41573 9.88303 3.0468 10.5984 3.82524 10.5984H18.1748C18.9532 10.5984 19.5843 9.88303 19.5843 9.00053C19.5843 8.11806 18.9532 7.40265 18.1748 7.40265H3.82524ZM6.32035 14.8042C5.5419 14.8042 4.91084 15.5197 4.91084 16.4021C4.91084 17.2846 5.5419 18 6.32035 18H15.6794C16.4579 18 17.0889 17.2846 17.0889 16.4021C17.0889 15.5197 16.4579 14.8042 15.6794 14.8042H6.32035Z" fill="#3C3C3C"/>
</svg>
