<svg width="12" height="12" viewBox="0 0 12 12" fill="none" xmlns="http://www.w3.org/2000/svg">
<g clip-path="url(#clip0_222_2186)">
<path fill-rule="evenodd" clip-rule="evenodd" d="M4.37278 0.722258C3.85083 0.766447 3.355 0.962277 2.94769 1.2851C2.79151 1.40888 2.62666 1.57377 2.50741 1.72548C2.17653 2.1464 1.98439 2.6419 1.94397 3.17853C1.93763 3.26262 1.93761 3.48283 1.94393 3.56388C1.98267 4.06085 2.14915 4.52167 2.43263 4.91661C2.99736 5.7034 3.93339 6.11947 4.89598 6.01161C5.24534 5.97246 5.60212 5.85641 5.90769 5.68251C6.37197 5.41829 6.75216 5.01255 6.98435 4.53348C7.14204 4.20812 7.22677 3.8826 7.24779 3.52134C7.29806 2.65769 6.92356 1.82551 6.24142 1.28506C5.8242 0.954511 5.32489 0.760668 4.78582 0.719954C4.7005 0.713508 4.46028 0.714847 4.37278 0.722258ZM4.49758 1.57466C4.00255 1.59949 3.53286 1.83468 3.21382 2.21748C2.92288 2.56656 2.77422 3.01152 2.79846 3.4607C2.80961 3.66721 2.8436 3.82938 2.91467 4.01508C3.01392 4.27443 3.17468 4.50998 3.38058 4.69775C3.66847 4.96029 4.00128 5.11123 4.40158 5.16081C4.48005 5.17053 4.72336 5.16905 4.80718 5.15834C5.22654 5.10476 5.59676 4.92125 5.88491 4.62413C6.16258 4.33782 6.32887 3.9898 6.38234 3.58308C6.39272 3.50412 6.39436 3.25855 6.38501 3.18228C6.35651 2.94977 6.30187 2.76289 6.20677 2.57268C6.12319 2.40552 6.0345 2.27745 5.91053 2.14494C5.61585 1.82997 5.23981 1.63846 4.80958 1.58424C4.77152 1.57944 4.59519 1.56873 4.57918 1.57025C4.57522 1.57062 4.5385 1.57261 4.49758 1.57466ZM8.70718 1.60575C8.60731 1.62724 8.51756 1.67932 8.45588 1.75158C8.41422 1.80039 8.37834 1.87561 8.36383 1.94458C8.35295 1.99633 8.35407 2.07453 8.36643 2.12509C8.38708 2.20958 8.44423 2.30485 8.50354 2.35362C8.54679 2.38919 8.57766 2.40654 8.6552 2.43883C8.75039 2.47846 8.8309 2.51909 8.90652 2.56565C9.1911 2.74085 9.41938 3.00498 9.54955 3.30964C9.68051 3.61615 9.71452 3.95559 9.64717 4.28388C9.60467 4.49101 9.511 4.7074 9.38745 4.88388C9.2845 5.03092 9.13916 5.17669 8.99038 5.28211C8.81698 5.40499 8.59466 5.50115 8.38558 5.54372C8.28583 5.56403 8.21552 5.57207 8.09274 5.57722C8.01055 5.58067 7.97562 5.58412 7.94638 5.59169C7.79786 5.63015 7.68019 5.74819 7.63759 5.90148C7.63149 5.92342 7.62965 5.94969 7.62988 6.01188C7.63015 6.09031 7.63075 6.09524 7.64537 6.13908C7.65963 6.18186 7.68592 6.23315 7.7088 6.26286C7.7335 6.29491 7.78638 6.34362 7.82158 6.36673C7.91809 6.43009 7.99382 6.44358 8.18878 6.43219C8.53337 6.41205 8.83325 6.33462 9.13678 6.18741C9.39872 6.06037 9.60744 5.91159 9.81365 5.70491C10.1149 5.40294 10.3259 5.04413 10.4447 4.63188C10.5512 4.26207 10.5681 3.85039 10.4924 3.46866C10.4079 3.04242 10.2206 2.6596 9.93205 2.32363C9.72338 2.08064 9.44082 1.86255 9.15118 1.7209C8.92486 1.61022 8.81675 1.58218 8.70718 1.60575ZM4.30798 7.27722C3.17103 7.32572 2.06505 7.66762 1.10638 8.26696C1.00736 8.32887 0.89586 8.40331 0.847183 8.44002C0.357766 8.80913 0.138175 9.34502 0.249636 9.8983C0.2895 10.0962 0.370212 10.2839 0.494882 10.4687C0.594809 10.6168 0.739011 10.7674 0.89107 10.8826C1.15205 11.0802 1.4717 11.2128 1.80835 11.2629C1.97625 11.288 1.84608 11.2865 3.95278 11.288C5.02462 11.2888 6.86278 11.2875 8.03758 11.2852C10.1356 11.2809 10.1748 11.2807 10.2409 11.2713C10.5895 11.2216 10.876 11.1076 11.135 10.9155C11.459 10.6753 11.6819 10.3357 11.7525 9.97507C11.773 9.86983 11.7768 9.82846 11.7765 9.71028C11.7763 9.59302 11.7704 9.53323 11.7496 9.43699C11.6843 9.13396 11.4985 8.84666 11.2296 8.63277C11.1165 8.54283 10.8908 8.39951 10.6632 8.27305C10.4825 8.17269 10.1795 8.0275 10.0968 8.00162C10.0546 7.98844 9.95553 7.98304 9.91084 7.99149C9.7271 8.02626 9.59571 8.15582 9.55863 8.33879C9.53182 8.4711 9.58491 8.63329 9.68595 8.7278C9.72313 8.76258 9.77209 8.79172 9.85858 8.83051C10.1543 8.96315 10.5387 9.18091 10.6923 9.3028C10.8383 9.41862 10.9121 9.54683 10.9186 9.69603C10.9215 9.76219 10.9151 9.80698 10.8929 9.87348C10.8434 10.0224 10.719 10.1716 10.5648 10.2669C10.4083 10.3638 10.249 10.4131 10.0536 10.4254C9.98131 10.43 8.72158 10.4327 8.72158 10.4283C8.72158 10.4272 8.73452 10.4046 8.75033 10.378C8.8587 10.1955 8.92754 9.99737 8.95512 9.78868C8.96516 9.71277 8.96644 9.53307 8.95745 9.46308C8.92 9.17172 8.81387 8.93414 8.61529 8.69712C8.50429 8.56464 8.37212 8.45446 8.16186 8.31912C7.28658 7.75572 6.30492 7.41162 5.27038 7.3056C4.97533 7.27536 4.60653 7.26448 4.30798 7.27722ZM4.27438 8.1386C3.26975 8.19785 2.33673 8.4993 1.49758 9.03577C1.38913 9.10511 1.33233 9.14719 1.27867 9.19798C1.18266 9.28887 1.12368 9.38457 1.09371 9.49813C1.07958 9.55168 1.07634 9.65132 1.0869 9.70788C1.15238 10.0585 1.49517 10.3454 1.92958 10.4132C1.95466 10.4171 2.0119 10.4225 2.05678 10.4252C2.15666 10.4313 6.68414 10.4316 7.00078 10.4256C7.2229 10.4214 7.25079 10.4188 7.36318 10.3924C7.49674 10.361 7.64464 10.2934 7.76129 10.2105C7.81714 10.1708 7.91131 10.0809 7.95089 10.0295C8.03156 9.92468 8.08102 9.8165 8.1005 9.70218C8.10984 9.64739 8.10766 9.55878 8.09574 9.50868C8.06471 9.37829 7.98724 9.26087 7.86523 9.15931C7.78562 9.09305 7.55394 8.9467 7.3565 8.83797C6.67166 8.46083 5.90822 8.22666 5.13118 8.1554C4.86443 8.13094 4.51914 8.12417 4.27438 8.1386Z" fill="#3A3939" fill-opacity="0.7"/>
</g>
<defs>
<clipPath id="clip0_222_2186">
<rect width="12" height="12" fill="white"/>
</clipPath>
</defs>
</svg>
