<svg width="24" height="24" viewBox="0 0 24 24" fill="none" xmlns="http://www.w3.org/2000/svg">
<g clip-path="url(#clip0_0_4748)">
<path d="M21.9684 10.664C22.8696 11.3265 22.8696 12.6731 21.9684 13.3356C20.4773 14.4317 19.7188 16.2702 19.9984 18.0996C20.1677 19.2089 19.2091 20.1675 18.0998 19.9982C16.2704 19.7186 14.4318 20.4771 13.3358 21.9682C12.6733 22.8694 11.3267 22.8694 10.6642 21.9682C9.56817 20.4771 7.7296 19.7186 5.90025 19.9982C4.79094 20.1675 3.83223 19.2089 4.00172 18.0996C4.2812 16.2702 3.52273 14.4317 2.03163 13.3356C1.13033 12.6731 1.13033 11.3265 2.03163 10.664C3.52273 9.56799 4.2812 7.72942 4.00172 5.90007C3.83223 4.79076 4.79094 3.83204 5.90025 4.00153C7.7296 4.28101 9.56817 3.52255 10.6642 2.03144C11.3267 1.13014 12.6733 1.13014 13.3358 2.03144C14.4318 3.52255 16.2704 4.28101 18.0998 4.00153C19.2091 3.83204 20.1677 4.79076 19.9984 5.90007C19.7188 7.72942 20.4773 9.56799 21.9684 10.664Z" stroke="white" stroke-width="1.5" stroke-linecap="round" stroke-linejoin="round"/>
<path d="M11.9998 16.3552C14.4052 16.3552 16.3552 14.4052 16.3552 11.9999C16.3552 9.59448 14.4052 7.64453 11.9998 7.64453C9.59448 7.64453 7.64453 9.59448 7.64453 11.9999C7.64453 14.4052 9.59448 16.3552 11.9998 16.3552Z" stroke="white" stroke-width="1.5" stroke-linecap="round" stroke-linejoin="round"/>
</g>
<defs>
<clipPath id="clip0_0_4748">
<rect width="24" height="24" fill="white"/>
</clipPath>
</defs>
</svg>
