<svg width="24" height="24" viewBox="0 0 24 24" fill="none" xmlns="http://www.w3.org/2000/svg">
<path fill-rule="evenodd" clip-rule="evenodd" d="M6.76321 0.927772C6.26487 0.960556 5.73037 1.11892 5.28481 1.3658C4.68168 1.7 4.23249 2.14769 3.88007 2.76586C3.46972 3.48562 3.32623 4.36573 3.4859 5.18356C3.62459 5.894 3.95472 6.52163 4.45698 7.02978C4.53213 7.1058 4.62563 7.196 4.66475 7.23021L4.73589 7.29241L4.65035 7.34376C3.28716 8.16208 2.35985 9.56544 2.13212 11.1548C2.07908 11.5249 2.02274 12.3674 1.97546 13.4972C1.9588 13.8955 1.95878 15.7363 1.97543 16.142C2.02164 17.2669 2.08146 18.1513 2.1364 18.5217C2.23792 19.2062 2.4746 19.8695 2.83226 20.4717C3.65073 21.8499 5.05286 22.7814 6.63841 23.0004C7.04364 23.0564 8.3514 23.1292 9.58081 23.1643C10.9749 23.204 13.0251 23.204 14.4192 23.1643C15.6486 23.1292 16.9564 23.0564 17.3616 23.0004C18.2262 22.881 19.0586 22.5432 19.7568 22.0284C20.7654 21.2847 21.4719 20.2193 21.7724 18.9887C21.8762 18.5634 21.9213 18.1432 21.9836 17.0204C22.0288 16.2058 22.0368 15.8763 22.0368 14.822C22.0368 13.7438 22.0259 13.3301 21.9744 12.4556C21.9058 11.2913 21.8598 10.9403 21.7053 10.406C21.3377 9.13421 20.4844 8.02496 19.3497 7.34376L19.2641 7.29241L19.3353 7.23021C19.3744 7.196 19.4679 7.1058 19.543 7.02978C20.0451 6.52185 20.3742 5.89621 20.5143 5.18356C20.6738 4.37154 20.5292 3.48439 20.12 2.76586C19.8135 2.22754 19.4386 1.8252 18.9453 1.50508C18.4754 1.20018 18.0039 1.02616 17.4384 0.948892C17.2548 0.923807 16.8295 0.913449 16.6498 0.929692C16.109 0.978556 15.6377 1.12178 15.1859 1.37458C14.6751 1.66044 14.275 2.03063 13.9485 2.51956C13.9097 2.57764 13.4593 3.29908 12.9475 4.12276C12.4358 4.94644 12.0128 5.62568 12.0075 5.63218C12.0006 5.64068 11.7349 5.22066 11.06 4.13458C10.5441 3.3044 10.0903 2.57764 10.0515 2.51956C9.77052 2.09871 9.4438 1.77472 9.02742 1.50399C8.52985 1.18046 8.00484 0.996105 7.40826 0.935404C7.2855 0.922914 6.90548 0.918421 6.76321 0.927772ZM6.88131 2.64011C6.28117 2.68896 5.74705 3.01172 5.42862 3.51796C5.16977 3.92949 5.07985 4.42325 5.17862 4.89093C5.27422 5.34366 5.52979 5.74347 5.89921 6.01827C6.02429 6.11131 6.10407 6.15423 6.57935 6.38422L7.03201 6.60325L7.21921 6.58989C7.64812 6.55928 8.25734 6.52715 8.85121 6.50385C9.17437 6.49116 9.39765 6.48442 10.235 6.46211L10.4812 6.45556L9.56574 4.98196C9.06224 4.17148 8.62441 3.47164 8.59281 3.42676C8.33721 3.0638 7.96271 2.80743 7.5197 2.69214C7.34297 2.64614 7.07525 2.62432 6.88131 2.64011ZM16.8096 2.64005C16.2439 2.68107 15.7292 2.96902 15.4095 3.42339C15.3766 3.47012 14.9377 4.17148 14.4342 4.98196L13.5187 6.45556L13.7649 6.46211C14.601 6.48439 14.8256 6.49116 15.1488 6.50385C15.7423 6.52714 16.3509 6.55923 16.7808 6.58987L16.968 6.60322L17.4144 6.38742C17.6599 6.26872 17.8997 6.1484 17.9472 6.12004C18.6687 5.68948 19.0187 4.81787 18.7927 4.01491C18.6913 3.65461 18.4722 3.31295 18.1931 3.08C17.8824 2.82062 17.5106 2.67126 17.0976 2.63986C16.9576 2.62922 16.959 2.62922 16.8096 2.64005ZM10.4784 8.17564C9.16098 8.19995 7.61012 8.26818 7.01588 8.32796C6.29558 8.40042 5.65011 8.66985 5.08801 9.13268C4.97244 9.22784 4.7128 9.49006 4.61623 9.60916C4.33288 9.95861 4.13027 10.3257 3.98835 10.7468C3.86395 11.1159 3.82279 11.3506 3.78296 11.918C3.77221 12.0711 3.76117 12.219 3.75843 12.2468L3.75344 12.2972L7.44713 12.2948L11.1408 12.2924L11.1432 10.2308L11.1457 8.16916L10.8744 8.17124C10.7253 8.17239 10.5471 8.17437 10.4784 8.17564ZM12.8568 10.2293L12.8592 12.2924H16.5504H20.2416L20.2392 12.2396C20.2331 12.1091 20.1964 11.6364 20.183 11.5148C20.1149 10.9005 19.887 10.3012 19.5323 9.80368C19.417 9.64184 19.3072 9.51353 19.1478 9.35411C18.9305 9.13671 18.7584 8.99799 18.524 8.85124C18.1405 8.61108 17.6802 8.43523 17.2433 8.36197C16.7749 8.28342 14.975 8.19685 13.308 8.17271L12.8544 8.16613L12.8568 10.2293ZM3.68209 14.0179C3.67239 14.0493 3.66937 14.9018 3.67724 15.3874C3.69073 16.2187 3.7164 16.7985 3.77804 17.6636C3.82341 18.3003 3.86047 18.5177 3.98835 18.8972C4.42938 20.2057 5.56067 21.1347 6.92161 21.306C7.05993 21.3234 7.44791 21.3509 7.94401 21.3784C8.8023 21.426 9.70263 21.4563 10.7064 21.4712L11.1456 21.4778L11.1432 17.7443L11.1408 14.0108L7.41331 14.0083C4.43599 14.0064 3.68507 14.0083 3.68209 14.0179ZM12.8608 14.0124C12.8573 14.0159 12.8544 15.697 12.8544 17.7483V21.4778L13.2936 21.4712C14.2974 21.4563 15.1977 21.426 16.056 21.3784C16.5521 21.3509 16.9401 21.3234 17.0784 21.306C18.4443 21.1341 19.5794 20.1981 20.016 18.8836C20.1315 18.5357 20.1756 18.2913 20.2127 17.7932C20.2632 17.1132 20.293 16.5486 20.3143 15.8636C20.3258 15.4944 20.3294 14.0333 20.3188 14.0162C20.3117 14.0048 12.8722 14.0009 12.8608 14.0124Z" fill="#3A3939"/>
</svg>
