<svg width="26" height="25" viewBox="0 0 26 25" fill="none" xmlns="http://www.w3.org/2000/svg">
<path d="M7.96 24.416C6.808 24.416 5.70933 24.1867 4.664 23.728C3.61867 23.2587 2.70667 22.6027 1.928 21.76C1.16 20.9173 0.610667 19.9253 0.28 18.784L4.504 17.664C4.728 18.5067 5.16533 19.1627 5.816 19.632C6.47733 20.0907 7.192 20.32 7.96 20.32C8.62133 20.32 9.224 20.16 9.768 19.84C10.3227 19.52 10.76 19.088 11.08 18.544C11.4107 18 11.576 17.3973 11.576 16.736C11.576 15.744 11.2347 14.896 10.552 14.192C9.88 13.4773 9.016 13.12 7.96 13.12C7.64 13.12 7.33067 13.168 7.032 13.264C6.73333 13.3493 6.44533 13.472 6.168 13.632L4.216 10.208L11.544 4.128L11.864 5.056H1.176V0.959999H15.576V5.056L9.88 10.56L9.848 9.344C11.1707 9.54667 12.2853 10.0107 13.192 10.736C14.1093 11.4507 14.8027 12.336 15.272 13.392C15.752 14.4373 15.992 15.552 15.992 16.736C15.992 18.1867 15.624 19.4933 14.888 20.656C14.152 21.808 13.176 22.7253 11.96 23.408C10.744 24.08 9.41067 24.416 7.96 24.416ZM20.8503 24V19.648H25.2023V24H20.8503Z" fill="url(#paint0_linear_0_5773)"/>
<defs>
<linearGradient id="paint0_linear_0_5773" x1="14" y1="1" x2="14" y2="23" gradientUnits="userSpaceOnUse">
<stop stop-color="#7D5BC4"/>
<stop offset="0.471875" stop-color="#AE4680" stop-opacity="0.585417"/>
<stop offset="1" stop-color="#D69A00"/>
</linearGradient>
</defs>
</svg>
