<svg width="26" height="24" viewBox="0 0 26 24" fill="none" xmlns="http://www.w3.org/2000/svg">
<path d="M0.6 23.968V20.192L10.264 11.616C10.9893 10.976 11.5013 10.3733 11.8 9.808C12.0987 9.24267 12.248 8.71467 12.248 8.224C12.248 7.52 12.104 6.896 11.816 6.352C11.528 5.79733 11.1227 5.36533 10.6 5.056C10.0773 4.736 9.464 4.576 8.76 4.576C8.024 4.576 7.37333 4.74667 6.808 5.088C6.25333 5.41867 5.82133 5.86133 5.512 6.416C5.20267 6.96 5.05867 7.552 5.08 8.192H0.6C0.6 6.61333 0.946667 5.248 1.64 4.096C2.33333 2.944 3.29867 2.05333 4.536 1.424C5.77333 0.794666 7.21333 0.48 8.856 0.48C10.36 0.48 11.704 0.810666 12.888 1.472C14.0827 2.12266 15.0213 3.03466 15.704 4.208C16.3867 5.38133 16.728 6.74133 16.728 8.288C16.728 9.42933 16.568 10.3787 16.248 11.136C15.928 11.8827 15.4533 12.576 14.824 13.216C14.1947 13.8453 13.4213 14.56 12.504 15.36L6.264 20.832L5.912 19.872H16.728V23.968H0.6ZM21.2565 24V19.648H25.6085V24H21.2565Z" fill="url(#paint0_linear_0_5772)"/>
<defs>
<linearGradient id="paint0_linear_0_5772" x1="14" y1="1" x2="14" y2="23" gradientUnits="userSpaceOnUse">
<stop stop-color="#7D5BC4"/>
<stop offset="0.471875" stop-color="#AE4680" stop-opacity="0.585417"/>
<stop offset="1" stop-color="#D69A00"/>
</linearGradient>
</defs>
</svg>
