<svg width="24" height="24" viewBox="0 0 24 24" fill="none" xmlns="http://www.w3.org/2000/svg">
<path fill-rule="evenodd" clip-rule="evenodd" d="M11.1792 3.11608C10.3006 3.121 8.79369 3.14913 7.90561 3.17718C6.76057 3.21334 5.06184 3.28633 4.76641 3.31205C3.78838 3.39719 2.8805 3.82044 2.18355 4.51617C1.5662 5.13243 1.15958 5.93296 1.03268 6.78197C1.00933 6.93822 1.00027 7.03289 0.974817 7.38677C0.76764 10.2675 0.752011 13.0361 0.926817 15.8876C0.955867 16.3615 0.995553 16.9178 1.00866 17.0348C1.11387 17.9744 1.51879 18.8181 2.18376 19.483C2.87873 20.178 3.7857 20.6008 4.76641 20.687C4.97726 20.7055 6.2987 20.7659 7.19041 20.7977C8.89359 20.8586 10.202 20.8813 12 20.8813C13.798 20.8813 15.1064 20.8586 16.8096 20.7977C17.7013 20.7659 19.0228 20.7055 19.2336 20.687C20.2143 20.6008 21.1213 20.178 21.8163 19.483C22.4351 18.8642 22.8404 18.0664 22.9674 17.2172C22.9907 17.0609 22.9998 16.9662 23.0252 16.6124C23.2494 13.4948 23.2494 10.5144 23.0251 7.38677C22.9998 7.03308 22.9907 6.93842 22.9674 6.78197C22.8098 5.72814 22.2236 4.7602 21.3515 4.11413C20.7348 3.65724 19.9994 3.37871 19.2336 3.31205C19.023 3.2937 17.7163 3.23395 16.8144 3.20143C15.0438 3.13756 12.9651 3.10608 11.1792 3.11608ZM10.8576 4.83415C10.4221 4.83869 9.36196 4.85676 8.93281 4.86694C7.26592 4.9065 5.05381 4.99838 4.77121 5.03979C3.69845 5.19696 2.8555 6.04405 2.72229 7.09878C2.70712 7.21885 2.67274 7.68647 2.64041 8.21237C2.48524 10.7361 2.48524 13.2631 2.64041 15.7868C2.67264 16.3111 2.70711 16.7801 2.72215 16.8993C2.85566 17.9566 3.69896 18.8028 4.77601 18.9602C4.99231 18.9917 6.65533 19.0668 8.05441 19.1082C9.55926 19.1526 10.4061 19.1648 12 19.1648C13.594 19.1648 14.4408 19.1526 15.9456 19.1082C17.3447 19.0668 19.0077 18.9917 19.224 18.9602C20.3011 18.8028 21.1444 17.9567 21.2779 16.8993C21.2929 16.7801 21.3274 16.3111 21.3596 15.7868C21.5148 13.2631 21.5148 10.7361 21.3596 8.21237C21.3273 7.68647 21.2929 7.21885 21.2777 7.09878C21.1445 6.04405 20.3016 5.19696 19.2288 5.03979C19.0917 5.01971 18.7269 4.99908 17.7888 4.95839C16.5804 4.90596 15.4998 4.87331 14.1168 4.84739C13.6078 4.83785 11.3733 4.82877 10.8576 4.83415ZM8.69281 7.31083C8.67169 7.31293 8.60473 7.31935 8.54401 7.3251C7.75054 7.40016 6.96499 7.79447 6.42611 8.38819C5.91403 8.95238 5.62048 9.62484 5.55718 10.3787C5.54339 10.5429 5.55168 10.9216 5.57238 11.0732C5.66424 11.7455 5.93398 12.3435 6.37353 12.8492C6.40566 12.8861 6.43197 12.9188 6.43199 12.9218C6.432 12.9248 6.38774 12.9572 6.33361 12.9938C5.73468 13.3984 5.28115 13.9926 5.06283 14.6588C4.97969 14.9125 4.93674 15.1407 4.9147 15.446C4.8901 15.7866 4.93061 15.966 5.07654 16.1626C5.19407 16.3209 5.35723 16.433 5.54488 16.4843C5.65449 16.5143 5.87552 16.5142 5.98561 16.4841C6.23001 16.4173 6.43966 16.2404 6.54747 16.01C6.59521 15.908 6.61464 15.8121 6.62385 15.6332C6.6367 15.3833 6.66629 15.2384 6.73886 15.07C6.85776 14.7942 7.0867 14.5412 7.3825 14.3586C7.56668 14.2449 7.87562 14.1241 8.12161 14.0697C8.6832 13.9453 9.34024 13.9666 9.86401 14.126C10.3994 14.289 10.8038 14.5989 11.0039 14.9996C11.1019 15.1958 11.1379 15.3503 11.1549 15.6479C11.1601 15.7403 11.1714 15.8414 11.1799 15.8732C11.2504 16.1351 11.4639 16.368 11.7182 16.4603C11.9147 16.5316 12.1499 16.5249 12.351 16.4423C12.5208 16.3725 12.6936 16.2075 12.7834 16.0296C12.8547 15.8881 12.8749 15.7476 12.8623 15.4796C12.8181 14.5362 12.3552 13.6737 11.5824 13.0943C11.4968 13.0301 11.3828 12.9505 11.3508 12.9326C11.3364 12.9245 11.3438 12.9124 11.4076 12.8397C11.8583 12.3255 12.1403 11.6716 12.2127 10.9724C12.2299 10.8061 12.227 10.4477 12.2071 10.2764C12.132 9.63075 11.8935 9.06009 11.4829 8.54357C11.3858 8.42144 11.1073 8.14405 10.9824 8.04509C10.4713 7.64013 9.91439 7.40709 9.26882 7.32802C9.15805 7.31445 8.77222 7.30293 8.69281 7.31083ZM15.5262 8.99473C15.2015 9.04292 14.9179 9.29942 14.8311 9.62357C14.8029 9.72875 14.8004 9.92688 14.8258 10.0353C14.8638 10.1976 14.9371 10.3284 15.0578 10.449C15.1775 10.5687 15.3106 10.6433 15.4722 10.6812C15.5431 10.6978 15.6241 10.6988 16.9584 10.6988C18.2927 10.6988 18.3737 10.6978 18.4446 10.6812C18.6628 10.63 18.852 10.4965 18.9773 10.3054C19.1592 10.0279 19.1574 9.65033 18.9729 9.3723C18.8622 9.20552 18.6908 9.07822 18.4944 9.01693L18.408 8.98997L16.992 8.98866C16.2132 8.98794 15.5536 8.99067 15.5262 8.99473ZM8.75041 9.02919C8.73457 9.03145 8.68705 9.03787 8.64481 9.04348C8.32243 9.08623 7.99427 9.25018 7.75272 9.48917C7.51441 9.72494 7.36591 9.99629 7.29564 10.3244C7.26959 10.446 7.2594 10.7219 7.27619 10.851C7.3505 11.4223 7.72047 11.9129 8.24641 12.1378C8.5758 12.2786 8.94742 12.3078 9.28801 12.2196C9.87031 12.0689 10.3202 11.6152 10.4629 11.0348C10.4957 10.9013 10.5059 10.809 10.5059 10.646C10.5059 10.3717 10.4586 10.1676 10.3385 9.9238C10.1761 9.59428 9.89676 9.32348 9.5657 9.1746C9.4122 9.10557 9.31797 9.0762 9.15379 9.04624C9.07852 9.03251 8.80756 9.02105 8.75041 9.02919ZM15.5712 13.302C15.3754 13.3229 15.2004 13.4075 15.0578 13.5501C14.9371 13.6707 14.8638 13.8015 14.8258 13.9638C14.8004 14.0723 14.8029 14.2704 14.8311 14.3756C14.908 14.6628 15.1305 14.8911 15.4224 14.9822L15.5088 15.0092H16.9584H18.408L18.4944 14.9822C18.7355 14.9069 18.9321 14.7368 19.0371 14.5124C19.1286 14.3167 19.1362 14.0521 19.0561 13.8444C18.9768 13.639 18.7738 13.4332 18.5768 13.3585C18.4148 13.297 18.5278 13.3012 16.9968 13.2997C16.2312 13.299 15.5897 13.3 15.5712 13.302Z" fill="#3A3939"/>
</svg>
