<svg width="24" height="24" viewBox="0 0 24 24" fill="none" xmlns="http://www.w3.org/2000/svg">
<path fill-rule="evenodd" clip-rule="evenodd" d="M10.9248 1.56587C9.97816 1.58951 8.91692 1.65187 7.91038 1.74299C7.54441 1.77612 7.36346 1.81 7.14348 1.88657C6.78966 2.00973 6.47175 2.21238 6.21559 2.47807C6.13055 2.56627 5.93668 2.79505 5.74475 3.03369C4.44931 4.64446 2.60623 7.45778 1.52135 9.48047C1.36882 9.76484 1.07883 10.3506 0.98036 10.5733C0.863787 10.8368 0.769025 11.0779 0.702305 11.2808C0.53587 11.7867 0.517438 12.0496 0.620206 12.4513C0.760328 12.9991 1.11043 13.7807 1.67794 14.8129C2.53432 16.3704 3.85974 18.4379 4.99521 19.9873C5.47124 20.6369 5.99328 21.2922 6.22541 21.5316C6.5734 21.8904 7.01603 22.1227 7.52624 22.2141C7.7405 22.2525 8.80294 22.3388 9.59518 22.3822C10.9726 22.4576 12.4681 22.4678 13.8048 22.4109C14.8073 22.3682 16.1776 22.2672 16.4737 22.2141C16.9619 22.1267 17.3832 21.9136 17.7251 21.5812C17.8261 21.4832 18.1314 21.1302 18.266 20.956C18.2929 20.9211 18.3725 20.8196 18.443 20.7304C19.6641 19.1827 21.4281 16.4749 22.4541 14.5729C22.6148 14.275 22.9126 13.6763 23.0152 13.4449C23.3092 12.782 23.4432 12.3312 23.4432 12.0049C23.4432 11.6856 23.3118 11.2348 23.0375 10.6129C22.1583 8.61942 19.6047 4.62337 17.9764 2.69289C17.7218 2.39098 17.5245 2.22041 17.2444 2.06002C17.0209 1.93199 16.7126 1.82515 16.4399 1.78115C16.1195 1.72946 14.6917 1.62743 13.752 1.58905C12.9419 1.55596 11.722 1.54596 10.9248 1.56587ZM10.8864 3.28402C9.99604 3.30866 8.96228 3.37044 8.0792 3.45179C7.7902 3.47841 7.73832 3.48887 7.6249 3.54334C7.51957 3.59393 7.46026 3.65112 7.2525 3.90242C6.31272 5.03917 5.03161 6.89989 3.93113 8.72649C3.12855 10.0586 2.53359 11.2042 2.32817 11.8128C2.26911 11.9878 2.26797 11.9995 2.29942 12.107C2.57222 13.0387 4.00583 15.5429 5.59617 17.8657C5.72451 18.0531 5.83501 18.2124 5.84175 18.2196C5.85676 18.2356 5.85685 18.2353 5.88497 18.0913C5.97765 17.6166 6.15736 17.0644 6.3637 16.6204C6.91628 15.4312 7.81268 14.4903 8.96737 13.8875L9.09797 13.8193L8.97447 13.706C8.71864 13.4713 8.46993 13.1733 8.26371 12.8545C7.96025 12.3853 7.74079 11.8322 7.63708 11.2752C7.55679 10.844 7.54296 10.3394 7.59917 9.89289C7.75801 8.63125 8.46548 7.4891 9.53107 6.77401C10.4907 6.12999 11.6574 5.8885 12.8037 6.09659C13.9878 6.31153 15.0436 7.0123 15.7101 8.02569C16.0803 8.58868 16.3284 9.26467 16.4058 9.92169C16.4478 10.2775 16.4442 10.7334 16.3969 11.0689C16.2906 11.8227 16.0004 12.5251 15.5456 13.1295C15.3881 13.3389 15.1559 13.5937 14.9873 13.7422L14.9004 13.8188L15.0222 13.8818C15.4517 14.1041 15.8701 14.392 16.2288 14.712C16.5825 15.0276 16.9083 15.4043 17.1846 15.817C17.6236 16.4728 17.9562 17.285 18.11 18.0769C18.1238 18.1482 18.1382 18.2138 18.142 18.2226C18.1527 18.2481 18.809 17.2811 19.2834 16.5409C20.4805 14.6731 21.3911 13.0173 21.6731 12.1953C21.73 12.0295 21.7316 11.9875 21.6868 11.8514C21.4908 11.2566 20.8951 10.1017 20.1072 8.78888C18.9872 6.92298 17.6572 4.9919 16.7087 3.85449C16.547 3.66065 16.4807 3.5971 16.3909 3.54988C16.2852 3.49437 16.2069 3.47799 15.9216 3.45179C15.0002 3.36718 14.0219 3.30951 13.0608 3.28318C12.6691 3.27244 11.2851 3.27298 10.8864 3.28402ZM11.832 7.7432C11.367 7.78809 11.0398 7.8834 10.6903 8.07568C9.90994 8.50508 9.3806 9.30391 9.29307 10.1843C9.28033 10.3124 9.28037 10.6068 9.29314 10.7343C9.41472 11.9473 10.337 12.9362 11.5392 13.1425C11.8658 13.1985 12.2322 13.1915 12.5648 13.1229C12.9608 13.0412 13.3701 12.8474 13.6992 12.5858C13.828 12.4834 14.028 12.283 14.1304 12.1537C14.4482 11.7524 14.6425 11.2841 14.7024 10.7748C14.7195 10.6303 14.7218 10.318 14.707 10.1803C14.6109 9.29041 14.0983 8.51552 13.3175 8.07952C13.0266 7.91709 12.6932 7.80817 12.3424 7.761C12.2388 7.74706 11.9105 7.73562 11.832 7.7432ZM11.6016 14.9137C10.6669 14.9825 9.85201 15.2708 9.19198 15.766C8.88024 16 8.58137 16.3008 8.35544 16.6081C7.94515 17.1661 7.66296 17.8502 7.54038 18.5839C7.47984 18.9463 7.45951 19.2878 7.4593 19.9457L7.45918 20.341L7.49998 20.3761C7.56154 20.429 7.64659 20.473 7.73935 20.4998C7.822 20.5237 8.17611 20.5592 8.79838 20.6061C10.9583 20.7687 13.0741 20.7671 15.264 20.6012C15.8867 20.554 16.1684 20.5254 16.2576 20.5002C16.3526 20.4734 16.4373 20.43 16.5 20.3761L16.5408 20.341L16.5407 19.9649C16.5405 19.3367 16.5227 18.9988 16.4725 18.6721C16.2682 17.3432 15.5963 16.2577 14.5728 15.6031C13.7513 15.0777 12.6972 14.8331 11.6016 14.9137Z" fill="#3A3939"/>
</svg>
