<svg width="46" height="19" viewBox="0 0 46 19" fill="none" xmlns="http://www.w3.org/2000/svg">
<path fill-rule="evenodd" clip-rule="evenodd" d="M44.9443 13.9277C45.0829 13.3209 44.9998 12.3499 45.0275 11.7126C45.051 11.0441 44.4538 10.5993 44.4465 9.93035C44.4355 8.9199 44.4421 7.7292 44.362 6.91835C44.2234 5.61357 43.8907 5.43151 42.5598 5.43151L26.7559 5.46185C26.6691 5.46185 26.5934 5.45882 26.5272 5.4531C26.2336 5.42768 26.0232 5.19142 25.9555 4.90457C25.7647 4.09627 25.6104 2.30307 25.3695 1.15306C25.2032 0.364125 25.2032 0 24.4269 0H17.3567C16.3031 0 15.2495 0.546188 14.3622 1.33512L11.5224 3.847C10.7368 4.54181 9.75194 4.96587 8.71153 5.09779C6.20258 5.4159 3.70213 5.88803 1.6913 6.4632C0.914969 6.6756 0.609981 7.07007 0.609981 8.01072L0.634612 10.787C0.636318 10.9793 0.473348 11.1298 0.300838 11.2149C0.285218 11.2226 0.26896 11.2301 0.252743 11.2364C0.0276944 11.3245 0.0267867 11.4174 0 11.652C0 11.8644 0 12.1071 0 12.2285C0 12.714 0.0554593 14.1401 0.388175 14.4132C0.554532 14.5346 0.804067 14.656 1.0536 14.656L1.1276 14.6591C1.55707 14.6772 2.09172 14.7449 2.32857 14.3862C2.42341 14.2426 2.47008 14.0344 2.52309 13.7153C2.88353 11.3182 4.7412 9.58859 6.98703 9.58859C9.31603 9.58859 11.2291 11.5306 11.4787 14.0188C11.5619 14.7167 11.8946 14.747 12.3659 14.747L30.5821 14.7774C30.9702 14.7774 31.0534 14.5346 31.0812 14.1401C31.2753 11.5913 33.2161 9.58859 35.6005 9.58859C37.9573 9.58859 39.8981 11.5609 40.0922 14.0795C40.1477 14.747 40.1477 14.8077 40.6745 14.8077H42.1439C42.7816 14.7774 44.778 14.656 44.9443 13.9277ZM21.9315 5.0067C22.1256 3.15574 22.2365 1.79027 22.3197 1.27443C22.3474 1.06203 22.4028 0.910309 22.6524 0.910309H23.7337C23.8169 0.910309 23.8723 1.12272 23.8723 1.4565L24.0387 4.82464C24.0664 5.64392 24.011 5.55289 23.6228 5.55289H22.486C21.876 5.55289 21.876 5.58323 21.9315 5.0067ZM13.8354 5.55289C13.5859 5.55289 13.9463 5.40117 13.9741 5.06739C14.004 4.44552 13.3057 3.6765 13.7498 3.24018L14.9167 2.09371C15.2495 1.75993 15.499 1.60821 15.9149 1.39581C16.5249 1.09237 17.0239 0.910309 17.5785 0.910309H21.0997C21.3215 0.910309 21.3215 1.00134 21.2938 1.21375C21.1829 1.97234 20.9888 4.00536 20.8224 4.97636C20.7393 5.43151 20.6561 5.55289 20.2125 5.55289H13.8354ZM6.9593 10.5596C8.95559 10.5596 10.5637 12.3195 10.5637 14.5043C10.5637 16.689 8.95559 18.4489 6.9593 18.4489C4.96301 18.4489 3.35488 16.689 3.35488 14.5043C3.35488 12.3195 4.99073 10.5596 6.9593 10.5596ZM35.5728 10.5596C37.5691 10.5596 39.1772 12.3195 39.1772 14.5043C39.1772 16.689 37.5691 18.4489 35.5728 18.4489C33.5765 18.4489 31.9684 16.689 31.9684 14.5043C31.9684 12.3195 33.5765 10.5596 35.5728 10.5596Z" fill="#FBAF43"/>
</svg>
