<svg width="22" height="19" viewBox="0 0 22 19" fill="none" xmlns="http://www.w3.org/2000/svg">
<path fill-rule="evenodd" clip-rule="evenodd" d="M0 1.87015C0 0.994228 0.631069 0.28418 1.40952 0.28418H20.5905C21.3691 0.28418 22 0.994228 22 1.87015C22 2.74605 21.3691 3.45611 20.5905 3.45611H1.40952C0.631069 3.45611 0 2.74605 0 1.87015ZM3.82524 7.63165C3.0468 7.63165 2.41573 8.34172 2.41573 9.21762C2.41573 10.0935 3.0468 10.8036 3.82524 10.8036H18.1748C18.9532 10.8036 19.5843 10.0935 19.5843 9.21762C19.5843 8.34172 18.9532 7.63165 18.1748 7.63165H3.82524ZM6.32035 14.9781C5.5419 14.9781 4.91084 15.6882 4.91084 16.564C4.91084 17.4399 5.5419 18.15 6.32035 18.15H15.6794C16.4579 18.15 17.0889 17.4399 17.0889 16.564C17.0889 15.6882 16.4579 14.9781 15.6794 14.9781H6.32035Z" fill="#3C3C3C"/>
</svg>
